<svg width="59" height="59" viewBox="0 0 59 59" fill="none" xmlns="http://www.w3.org/2000/svg">
<path d="M31.8669 3.69388C31.2456 3.64801 30.6229 3.62504 30 3.625V0C30.7124 0.000347375 31.4246 0.0269488 32.1351 0.07975L31.8669 3.69388ZM39.1314 5.32512C37.9694 4.87673 36.7759 4.51446 35.5608 4.24125L36.3546 0.70325C37.743 1.015 39.1096 1.42825 40.4364 1.943L39.1314 5.32512ZM44.0976 7.89887C43.5793 7.55323 43.0485 7.22676 42.5062 6.92013L44.2934 3.76638C45.5328 4.46867 46.7189 5.26105 47.8422 6.13713L45.6129 8.99725C45.1214 8.61384 44.616 8.24867 44.0976 7.9025V7.89887ZM50.7459 14.3876C50.0288 13.3689 49.2376 12.4045 48.3787 11.5021L51.0032 9.00088C51.982 10.034 52.8883 11.1396 53.7111 12.2996L50.7459 14.3876ZM53.4429 19.2886C53.2049 18.7139 52.9462 18.148 52.6671 17.5921L55.9042 15.9609C56.5444 17.2336 57.0897 18.5518 57.5355 19.9049L54.0917 21.0395C53.8969 20.4481 53.6805 19.8641 53.4429 19.2886ZM55.3641 28.3765C55.3348 27.1307 55.2136 25.8888 55.0016 24.6609L58.5723 24.0446C58.8151 25.4439 58.9565 26.8649 58.9928 28.2859L55.3678 28.3765H55.3641ZM54.8892 33.9518C55.0089 33.3355 55.1067 32.7229 55.1829 32.103L58.7825 32.5489C58.6084 33.9632 58.3297 35.3626 57.9487 36.7357L54.4543 35.7679C54.621 35.1698 54.766 34.5644 54.8892 33.9518ZM51.4382 42.5756C52.1052 41.5244 52.6925 40.4224 53.2 39.2841L56.5133 40.7522C55.9333 42.0572 55.2626 43.3115 54.5014 44.515L51.4382 42.5756ZM47.9437 46.9437C48.386 46.5015 48.8101 46.0448 49.2125 45.5735L51.9602 47.9406C51.4949 48.4801 51.0101 49.0025 50.5066 49.5066L47.9437 46.9437Z" fill="black"/>
<path d="M30 3.625C25.8272 3.6253 21.7188 4.65467 18.0388 6.62193C14.3589 8.58919 11.2208 11.4336 8.90268 14.9033C6.58453 18.3729 5.15783 22.3607 4.74893 26.5135C4.34003 30.6662 4.96156 34.8557 6.55846 38.7108C8.15537 42.566 10.6784 45.9678 13.904 48.6151C17.1296 51.2623 20.9583 53.0732 25.0509 53.8873C29.1435 54.7015 33.3737 54.4938 37.3669 53.2826C41.3601 52.0715 44.9929 49.8942 47.9437 46.9437L50.5066 49.5066C47.1344 52.8807 42.982 55.3709 38.4174 56.7566C33.8527 58.1423 29.0168 58.3807 24.338 57.4507C19.6591 56.5208 15.282 54.4511 11.5942 51.4251C7.90647 48.3991 5.02204 44.5102 3.19648 40.103C1.37093 35.6958 0.660622 30.9063 1.12849 26.159C1.59636 21.4116 3.22797 16.853 5.87874 12.8869C8.52951 8.92089 12.1176 5.6699 16.3251 3.42201C20.5326 1.17412 25.2296 -0.00126415 30 1.02029e-06V3.625Z" fill="black"/>
<path d="M28.1875 10.875C28.6682 10.875 29.1292 11.066 29.4691 11.4059C29.809 11.7458 30 12.2068 30 12.6875V31.5737L41.774 38.3018C42.1792 38.5462 42.4728 38.9395 42.5919 39.3975C42.711 39.8556 42.6463 40.3421 42.4115 40.753C42.1766 41.1639 41.7904 41.4667 41.3353 41.5966C40.8802 41.7265 40.3924 41.6733 39.976 41.4482L27.2885 34.1982C27.0111 34.0398 26.7805 33.8108 26.6201 33.5345C26.4596 33.2583 26.3751 32.9445 26.375 32.625V12.6875C26.375 12.2068 26.566 11.7458 26.9059 11.4059C27.2458 11.066 27.7068 10.875 28.1875 10.875Z" fill="black"/>
</svg>
