<svg width="148" height="132" viewBox="0 0 148 132" fill="none" xmlns="http://www.w3.org/2000/svg">
<path d="M136.354 37.2045L90.1043 11.8413C89.4213 11.4667 88.6545 11.2703 87.875 11.2703C87.0956 11.2703 86.3287 11.4667 85.6458 11.8413L39.3958 37.2045C38.6706 37.6026 38.0659 38.1874 37.6448 38.898C37.2236 39.6085 37.0015 40.4188 37.0015 41.2441C37.0015 42.0695 37.2236 42.8797 37.6448 43.5903C38.0659 44.3009 38.6706 44.8857 39.3958 45.2838L81.6925 68.4786C82.653 69.0053 83.25 70.0136 83.25 71.109V113.696C83.25 115.977 80.8067 117.423 78.8074 116.327L71.8314 112.501C70.3816 111.705 68.5618 112.233 67.7625 113.681L66.2043 116.503C65.4018 117.956 65.9323 119.785 67.388 120.583L85.6458 130.596C86.3285 130.972 87.0954 131.169 87.875 131.169C88.6547 131.169 89.4216 130.972 90.1043 130.596L136.354 105.233C137.08 104.835 137.685 104.25 138.106 103.54C138.527 102.829 138.75 102.019 138.75 101.193V41.2441C138.75 40.4186 138.527 39.6083 138.106 38.8977C137.685 38.1871 137.08 37.6024 136.354 37.2045ZM86.4327 21.9381C87.3312 21.4455 88.4189 21.4455 89.3173 21.9381L119.731 38.6136C121.807 39.7524 121.807 42.7359 119.731 43.8747L89.3173 60.5502C88.4189 61.0428 87.3312 61.0428 86.4327 60.5502L56.0195 43.8747C53.9426 42.7359 53.9426 39.7524 56.0195 38.6136L86.4327 21.9381ZM129.5 96.6918C129.5 97.7872 128.903 98.7955 127.943 99.3222L96.9425 116.322C94.9433 117.419 92.5 115.972 92.5 113.692V71.1044C92.5 70.009 93.0971 69.0007 94.0575 68.474L125.058 51.4738C127.057 50.3774 129.5 51.8241 129.5 54.1042V96.6918Z" fill="white"/>
<path d="M46.25 66.6073C46.25 69.1542 44.1854 71.2188 41.6385 71.2188H13.8615C11.3146 71.2188 9.25 69.1542 9.25 66.6073C9.25 64.0605 11.3146 61.9958 13.8615 61.9958H41.6385C44.1854 61.9958 46.25 64.0605 46.25 66.6073ZM55.5 103.499C55.5 106.046 53.4354 108.111 50.8885 108.111H23.1115C20.5646 108.111 18.5 106.046 18.5 103.499C18.5 100.952 20.5646 98.8877 23.1115 98.8877H50.8885C53.4354 98.8877 55.5 100.952 55.5 103.499ZM64.75 85.0533C64.75 87.6001 62.6854 89.6648 60.1385 89.6648H32.3615C29.8146 89.6648 27.75 87.6001 27.75 85.0533C27.75 82.5064 29.8146 80.4418 32.3615 80.4418H60.1385C62.6854 80.4418 64.75 82.5064 64.75 85.0533Z" fill="white"/>
</svg>
