<svg width="119" height="103" viewBox="0 0 119 103" fill="none" xmlns="http://www.w3.org/2000/svg">
<path d="M97.538 71.6018V30.6866C97.538 25.0607 92.9178 20.4578 87.2709 20.4578H15.4008C9.75383 20.4578 5.13361 25.0607 5.13361 30.6866V71.6018C5.13361 77.2277 9.75383 81.8306 15.4008 81.8306H87.2709C92.9178 81.8306 97.538 77.2277 97.538 71.6018ZM87.2709 64.6018C87.2709 68.4678 84.1369 71.6018 80.2709 71.6018H22.4008C18.5348 71.6018 15.4008 68.4678 15.4008 64.6018V37.6866C15.4008 33.8206 18.5348 30.6866 22.4008 30.6866H80.2709C84.1369 30.6866 87.2709 33.8206 87.2709 37.6866V64.6018ZM51.3358 35.801C42.8141 35.801 35.9351 42.6543 35.9351 51.1442C35.9351 59.6341 42.8141 66.4874 51.3358 66.4874C59.8576 66.4874 66.7365 59.6341 66.7365 51.1442C66.7365 42.6543 59.8576 35.801 51.3358 35.801ZM112.939 35.801C115.774 35.801 118.072 38.0994 118.072 40.9346V92.0595C118.072 97.6853 113.452 102.288 107.805 102.288H25.6488C22.8241 102.288 20.5343 99.9985 20.5343 97.1739C20.5343 94.3493 22.8241 92.0595 25.6488 92.0595H100.805C104.671 92.0595 107.805 88.9254 107.805 85.0595V40.9346C107.805 38.0994 110.104 35.801 112.939 35.801Z" fill="white"/>
</svg>
