<svg width="140" height="140" viewBox="0 0 140 140" fill="none" xmlns="http://www.w3.org/2000/svg">
<path d="M26.1957 76.0001C27.2518 76.0001 28.2647 75.5805 29.0115 74.8337C29.7583 74.0869 30.1779 73.074 30.1779 72.0179C30.1779 70.9617 29.7583 69.9488 29.0115 69.202C28.2647 68.4552 27.2518 68.0356 26.1957 68.0356C25.1395 68.0356 24.1266 68.4552 23.3798 69.202C22.633 69.9488 22.2134 70.9617 22.2134 72.0179C22.2134 73.074 22.633 74.0869 23.3798 74.8337C24.1266 75.5805 25.1395 76.0001 26.1957 76.0001Z" fill="white"/>
<path d="M46.1067 20.249C41.8821 20.249 37.8306 21.9272 34.8433 24.9145C31.8561 27.9017 30.1779 31.9533 30.1779 36.1779V52.1067H22.2134C17.9889 52.1067 13.9373 53.7849 10.9501 56.7722C7.96281 59.7594 6.2846 63.811 6.2846 68.0356L6.2846 91.9288C6.2846 96.1534 7.96281 100.205 10.9501 103.192C13.9373 106.179 17.9889 107.858 22.2134 107.858H30.1779V115.822C30.1779 120.047 31.8561 124.098 34.8433 127.086C37.8306 130.073 41.8821 131.751 46.1067 131.751H93.8933C98.1179 131.751 102.169 130.073 105.157 127.086C108.144 124.098 109.822 120.047 109.822 115.822V107.858H117.787C122.011 107.858 126.063 106.179 129.05 103.192C132.037 100.205 133.715 96.1534 133.715 91.9288V68.0356C133.715 63.811 132.037 59.7594 129.05 56.7722C126.063 53.7849 122.011 52.1067 117.787 52.1067H109.822V36.1779C109.822 31.9533 108.144 27.9017 105.157 24.9145C102.169 21.9272 98.1179 20.249 93.8933 20.249H46.1067ZM38.1423 36.1779C38.1423 34.0656 38.9814 32.0398 40.475 30.5462C41.9686 29.0526 43.9944 28.2134 46.1067 28.2134H93.8933C96.0056 28.2134 98.0314 29.0526 99.525 30.5462C101.019 32.0398 101.858 34.0656 101.858 36.1779V52.1067H38.1423V36.1779ZM46.1067 76C41.8821 76 37.8306 77.6782 34.8433 80.6655C31.8561 83.6527 30.1779 87.7043 30.1779 91.9288V99.8933H22.2134C20.1012 99.8933 18.0754 99.0542 16.5818 97.5605C15.0881 96.0669 14.249 94.0411 14.249 91.9288V68.0356C14.249 65.9233 15.0881 63.8975 16.5818 62.4039C18.0754 60.9103 20.1012 60.0711 22.2134 60.0711H117.787C119.899 60.0711 121.925 60.9103 123.418 62.4039C124.912 63.8975 125.751 65.9233 125.751 68.0356V91.9288C125.751 94.0411 124.912 96.0669 123.418 97.5605C121.925 99.0542 119.899 99.8933 117.787 99.8933H109.822V91.9288C109.822 87.7043 108.144 83.6527 105.157 80.6655C102.169 77.6782 98.1179 76 93.8933 76H46.1067ZM101.858 91.9288V115.822C101.858 117.934 101.019 119.96 99.525 121.454C98.0314 122.947 96.0056 123.787 93.8933 123.787H46.1067C43.9944 123.787 41.9686 122.947 40.475 121.454C38.9814 119.96 38.1423 117.934 38.1423 115.822V91.9288C38.1423 89.8166 38.9814 87.7908 40.475 86.2972C41.9686 84.8035 43.9944 83.9644 46.1067 83.9644H93.8933C96.0056 83.9644 98.0314 84.8035 99.525 86.2972C101.019 87.7908 101.858 89.8166 101.858 91.9288Z" fill="white"/>
</svg>
