<svg width="130" height="114" viewBox="0 0 130 114" fill="none" xmlns="http://www.w3.org/2000/svg">
<path d="M65 89.5V81.375C68.1412 81.1036 71.0859 79.7323 73.3154 77.5029C75.5448 75.2734 76.9161 72.3287 77.1875 69.1875H85.3125C85.0499 74.4898 82.8255 79.5052 79.0716 83.2591C75.3177 87.013 70.3023 89.2374 65 89.5Z" fill="white"/>
<path d="M65 105.75C55.3067 105.738 46.0137 101.882 39.1595 95.028C32.3052 88.1738 28.4493 78.8808 28.4375 69.1875C28.6561 62.0608 30.7496 55.1176 34.5069 49.0578L61.5591 5.96281C61.9498 5.41441 62.4659 4.96734 63.0645 4.65887C63.663 4.3504 64.3266 4.18945 65 4.18945C65.6734 4.18945 66.337 4.3504 66.9355 4.65887C67.5341 4.96734 68.0502 5.41441 68.4409 5.96281L95.3753 48.8466C99.1956 54.9625 101.33 61.9802 101.562 69.1875C101.551 78.8808 97.6948 88.1738 90.8405 95.028C83.9863 101.882 74.6933 105.738 65 105.75ZM65 15.7575L41.5106 53.165C38.484 57.9792 36.7775 63.505 36.5625 69.1875C36.5625 76.7296 39.5586 83.9628 44.8917 89.2958C50.2247 94.6289 57.4579 97.625 65 97.625C72.5421 97.625 79.7753 94.6289 85.1083 89.2958C90.4414 83.9628 93.4375 76.7296 93.4375 69.1875C93.2057 63.4256 91.4568 57.827 88.3675 52.9578L65 15.7575Z" fill="white"/>
</svg>
