<svg width="75" height="66" viewBox="0 0 75 66" fill="none" xmlns="http://www.w3.org/2000/svg">
<path d="M37.5 51.8158V47.1118C39.3122 46.9547 41.0111 46.1608 42.2973 44.8701C43.5836 43.5793 44.3746 41.8745 44.5312 40.0559H49.2188C49.0672 43.1257 47.7839 46.0293 45.6182 48.2026C43.4525 50.3759 40.559 51.6637 37.5 51.8158Z" fill="black"/>
<path d="M37.5 61.2237C31.9077 61.2168 26.5464 58.9845 22.592 55.0162C18.6376 51.048 16.4131 45.6679 16.4062 40.0559C16.5324 35.9299 17.7402 31.9102 19.9078 28.4019L35.5148 3.45215C35.7403 3.13466 36.038 2.87583 36.3834 2.69724C36.7287 2.51865 37.1115 2.42548 37.5 2.42548C37.8885 2.42548 38.2713 2.51865 38.6166 2.69724C38.962 2.87583 39.2597 3.13466 39.4852 3.45215L55.0242 28.2796C57.2282 31.8204 58.4597 35.8833 58.5938 40.0559C58.5869 45.6679 56.3624 51.048 52.408 55.0162C48.4536 58.9845 43.0923 61.2168 37.5 61.2237ZM37.5 9.12276L23.9484 30.7797C22.2023 33.5669 21.2178 36.7661 21.0938 40.0559C21.0938 44.4224 22.8223 48.61 25.899 51.6976C28.9758 54.7852 33.1488 56.5197 37.5 56.5197C41.8512 56.5197 46.0242 54.7852 49.101 51.6976C52.1777 48.61 53.9062 44.4224 53.9062 40.0559C53.7725 36.7201 52.7635 33.4788 50.9813 30.6598L37.5 9.12276Z" fill="black"/>
</svg>
